<?xml version="1.0" standalone="no"?>
<!DOCTYPE svg PUBLIC "-//W3C//DTD SVG 20010904//EN"
 "http://www.w3.org/TR/2001/REC-SVG-20010904/DTD/svg10.dtd">
<svg version="1.0" xmlns="http://www.w3.org/2000/svg"
 width="1000.000000pt" height="1000.000000pt" viewBox="0 0 1000.000000 1000.000000"
 preserveAspectRatio="xMidYMid meet">
<metadata>
Created by potrace 1.16, written by Peter Selinger 2001-2019
</metadata>
<g transform="translate(0.000000,1000.000000) scale(0.100000,-0.100000)"
fill="#000000" stroke="none">
<path d="M6965 8274 c-458 -35 -845 -121 -1197 -265 -157 -64 -376 -177 -501
-258 l-97 -63 -92 60 c-458 294 -1032 455 -1798 503 -229 15 -828 6 -1130 -16
-315 -22 -814 -77 -917 -100 l-23 -5 0 -3030 c0 -2038 3 -3031 10 -3035 13 -8
367 -40 600 -55 281 -18 1019 -24 1220 -11 670 45 1175 164 1638 387 84 40
196 99 248 130 l94 56 88 -60 c550 -376 1233 -550 2072 -528 424 10 795 60
1205 162 155 39 442 123 520 153 l50 19 3 1486 2 1486 -1015 0 -1015 0 0 -325
0 -325 625 0 625 0 0 -919 0 -919 -83 -30 c-338 -122 -999 -165 -1444 -92
-349 57 -673 178 -923 345 -135 90 -131 82 -78 152 180 233 337 540 442 862
114 348 170 692 183 1121 22 761 -148 1408 -501 1913 l-75 107 57 36 c452 290
1029 422 1679 386 415 -24 741 -92 1058 -222 52 -21 95 -37 95 -34 0 2 43 148
95 325 75 251 93 324 83 331 -7 4 -59 26 -114 47 -249 97 -560 167 -921 207
-130 14 -654 27 -768 18z m-3655 -664 c381 -35 733 -128 1011 -268 116 -59
279 -158 279 -171 0 -4 -28 -43 -61 -86 -520 -673 -736 -1604 -598 -2570 72
-501 253 -984 506 -1348 l54 -77 -78 -50 c-387 -250 -871 -381 -1493 -405
-246 -10 -772 14 -887 40 l-23 5 0 2434 0 2434 138 21 c118 18 241 32 397 44
102 9 652 6 755 -3z m1879 -1132 c186 -381 261 -779 248 -1327 -11 -443 -72
-780 -203 -1111 -48 -120 -142 -310 -154 -310 -10 0 -101 185 -138 280 -73
187 -127 395 -164 630 -20 128 -22 184 -23 480 0 272 3 358 18 455 45 303 123
564 234 790 57 114 115 215 124 215 4 0 30 -46 58 -102z"/>
<path d="M7175 6999 c-55 -5 -106 -11 -112 -14 -10 -3 -13 -135 -13 -610 l0
-605 105 0 105 0 0 266 0 266 143 -4 c160 -6 215 -20 266 -70 45 -44 68 -93
112 -238 21 -69 47 -146 58 -172 l20 -48 107 0 c97 0 105 1 98 18 -4 9 -37
105 -73 212 -36 107 -76 209 -88 226 -34 48 -97 101 -137 115 l-36 13 72 33
c93 43 147 88 183 154 26 47 30 64 30 134 0 70 -4 87 -30 133 -36 66 -70 96
-160 138 -122 59 -360 78 -650 53z m440 -134 c128 -33 195 -102 195 -203 0
-70 -18 -110 -71 -155 -66 -57 -144 -77 -326 -84 l-153 -6 0 226 0 226 23 4
c59 11 276 6 332 -8z"/>
<path d="M8300 6385 l0 -615 105 0 105 0 0 615 0 615 -105 0 -105 0 0 -615z"/>
</g>
</svg>
