<?xml version="1.0" standalone="no"?>
<!DOCTYPE svg PUBLIC "-//W3C//DTD SVG 20010904//EN"
 "http://www.w3.org/TR/2001/REC-SVG-20010904/DTD/svg10.dtd">
<svg version="1.0" xmlns="http://www.w3.org/2000/svg"
 width="980.000000pt" height="980.000000pt" viewBox="0 0 980.000000 980.000000"
 preserveAspectRatio="xMidYMid meet">
<metadata>
Created by potrace 1.16, written by Peter Selinger 2001-2019
</metadata>
<g transform="translate(0.000000,980.000000) scale(0.100000,-0.100000)"
fill="#000000" stroke="none">
<path d="M2291 7273 c-61 -22 -133 -96 -154 -158 -37 -107 -13 -220 63 -295
87 -88 -182 -80 2700 -80 2882 0 2613 -8 2700 80 108 107 108 283 0 390 -87
88 183 80 -2704 79 -2300 0 -2566 -2 -2605 -16z"/>
<path d="M2303 5172 c-76 -27 -118 -63 -154 -137 -29 -59 -31 -71 -27 -137 8
-114 60 -193 158 -237 45 -21 52 -21 2620 -21 2568 0 2575 0 2620 21 94 42
149 122 158 226 9 121 -43 220 -145 269 l-58 29 -2560 2 c-2437 2 -2562 2
-2612 -15z"/>
<path d="M2275 3064 c-55 -29 -94 -64 -122 -112 -25 -42 -28 -56 -28 -142 0
-111 18 -155 85 -213 78 -67 -119 -62 2700 -62 l2565 0 45 21 c61 28 107 69
133 118 18 34 22 57 22 137 0 89 -2 99 -30 144 -17 27 -52 65 -80 84 l-49 36
-2606 2 c-2347 3 -2608 1 -2635 -13z"/>
</g>
</svg>
